Coordinates
version=1
nRows=5
nColumns=42
inDegrees=yes

Units are S.I. units (second, meters, Newtons, ...)
If the header above contains a line with 'inDegrees', this indicates whether rotational values are in degrees (yes) or radians (no).

endheader
time	pelvis_tilt	pelvis_list	pelvis_rotation	pelvis_tx	pelvis_ty	pelvis_tz	hip_flexion_r	hip_adduction_r	hip_rotation_r	knee_angle_r	knee_angle_r_beta	ankle_angle_r	subtalar_angle_r	mtp_angle_r	hip_flexion_l	hip_adduction_l	hip_rotation_l	knee_angle_l	knee_angle_l_beta	ankle_angle_l	subtalar_angle_l	mtp_angle_l	lumbar_extension	lumbar_bending	lumbar_rotation	sh_tx_r	sh_ty_r	sh_tz_r	sh_plane_elev_r	sh_elev_r	sh_axial_rot_r	elbow_flex_r	pro_sup_r	sh_tx_l	sh_ty_l	sh_tz_l	sh_plane_elev_l	sh_elev_l	sh_axial_rot_l	elbow_flex_l	pro_sup_l
      0.00000000	     -2.60247085	     -0.16279273	     -1.73598620	      0.28036053	      0.94720019	     -0.06004671	      2.24834526	     -4.58370607	     -0.26945396	      5.69942281	      0.09947369	     -0.72376317	    -10.82071939	     -5.30417198	      4.34562725	     -4.03138241	     -5.88611756	      9.51768617	      0.16611496	     11.62762290	     -3.23590460	     -5.30417198	     -4.90601633	      0.62705341	     -1.29504179	      0.00026289	     -0.01792235	     -0.00552997	      8.27429148	      6.50287527	     -0.43419710	     24.39884168	     76.51984953	     -0.00075658	     -0.01735883	     -0.00496576	     18.04289107	      6.16831289	     -1.57891177	     26.09230136	     68.26490903
      0.01666670	     -3.99043605	     -0.27632961	     -1.83313704	      0.28255847	      0.94028721	     -0.05152580	      3.14619339	     -3.69335404	      1.03959690	      5.04356637	      0.08802684	      2.48280803	     -9.33686806	     -6.17380831	      5.83866910	     -4.23645966	     -6.06491775	      8.88000509	      0.15498533	     11.76423618	     -2.60697903	     -6.17380831	     -2.02082155	      0.62556962	     -1.44882669	      0.00080873	     -0.01792026	     -0.00603789	     -0.01665274	      4.33298365	     -0.14836077	     23.37235738	     78.35733644	     -0.00038269	     -0.01704708	     -0.00507911	      8.55614649	      4.32253929	     -1.03102162	     25.61115746	     72.09638045
      0.03333330	     -4.74375325	      0.14064082	     -2.12017911	      0.28284709	      0.93967743	     -0.05107109	      3.51257841	     -3.94368814	      0.72994845	      4.25983696	      0.07434818	      2.99602019	     -9.15996688	     -6.18779768	      6.32878046	     -4.01149552	     -6.95766155	      8.36659514	      0.14602463	     11.62615265	     -1.65838257	     -6.18779768	     -1.05559733	     -0.24881718	     -1.26054588	      0.00036240	     -0.01785073	     -0.00599975	     -0.05325495	      3.61784180	     -1.19082954	     22.57451288	     77.40201960	     -0.00256572	     -0.01681440	     -0.00495513	      8.83561345	      4.77677124	     -1.92791098	     25.39503848	     71.57139010
      0.05000000	     -4.32098011	      0.36876596	     -2.17713911	      0.28287460	      0.93868093	     -0.05110215	      2.83920362	     -4.16572541	      0.91306650	      3.90836597	      0.06821385	      3.59545787	     -9.27564076	     -6.72361479	      5.33071494	     -3.73821415	     -6.94095284	      7.49451507	      0.13080396	     11.33765352	     -1.82689207	     -6.72361479	     -1.53120007	     -0.66844630	     -1.30408461	      0.00089485	     -0.01798837	     -0.00610971	     -2.82561188	      3.01621486	     -0.19128580	     23.01677073	     76.64224631	     -0.00388559	     -0.01684034	     -0.00474686	      7.38948928	      4.93136869	     -1.25459707	     25.77958727	     72.63413940
      0.06666670	     -4.34191412	      0.46945525	     -2.24332640	      0.28653958	      0.93893163	     -0.05572511	      2.63404021	     -4.37381502	      0.88346375	      3.75159882	      0.06547775	      3.83919212	     -9.40239341	     -6.72588555	      4.96960027	     -3.50248194	     -6.90552817	      7.06098913	      0.12323751	     11.46865557	     -1.80840980	     -6.72588555	     -1.18294894	     -0.54054782	     -1.39120017	      0.00153696	     -0.01805589	     -0.00599036	     -2.87730225	      3.32209633	     -0.24049260	     23.09591321	     76.63060982	     -0.00453268	     -0.01703060	     -0.00454559	      7.44396908	      4.92403974	     -1.20497851	     25.79228284	     72.64353250
